<svg xmlns="http://www.w3.org/2000/svg" viewBox="0 0 27 29" class="h-[28px]" fill="none"
  aria-label="Adapt AI Logo" role="img">
  <path fill="currentColor"
    d="M12.618 28.082c0 .055-.058.09-.107.065L6.88 25.23a.073.073 0 0 1-.029-.104l5.631-8.976c.04-.062.136-.035.136.039v11.893ZM26.274 20.244c.039.063-.03.138-.096.103l-9.988-5.176a.525.525 0 0 0-.483.932l10.53 5.458a.073.073 0 0 1 0 .13l-12.463 6.456a.073.073 0 0 1-.107-.065V15.885c0-.85.474-1.629 1.229-2.02l5.578-2.89a.073.073 0 0 1 .096.026l5.704 9.243ZM5.91 24.652a.073.073 0 0 1-.096.026L.047 21.69a.073.073 0 0 1 0-.13l11.322-5.868c.066-.035.136.04.096.104L5.91 24.652ZM10.496 14.808c.076 0 .102.103.034.138L.107 20.347c-.066.034-.135-.04-.096-.103l3.334-5.402a.073.073 0 0 1 .062-.034h7.089ZM10.944 13.62c.068.035.043.138-.034.138H4.145a.073.073 0 0 1-.062-.112l1.639-2.656a.073.073 0 0 1 .096-.027l5.126 2.657ZM19.94 9.98a.073.073 0 0 1-.029.104l-5.541 2.872a2.636 2.636 0 0 1-2.426 0L6.38 10.073a.073.073 0 0 1-.028-.104l6.13-9.934c.039-.063.136-.035.136.039v10.982a.525.525 0 0 0 1.05 0V.073c0-.073.096-.1.135-.038L19.94 9.98Z"></path>
</svg>
